<?xml version="1.0" encoding="utf-8"?>
<!-- Svg Vector Icons : http://www.onlinewebfonts.com/icon -->
<!DOCTYPE svg PUBLIC "-//W3C//DTD SVG 1.1//EN" "http://www.w3.org/Graphics/SVG/1.1/DTD/svg11.dtd">
<svg version="1.1" xmlns="http://www.w3.org/2000/svg" xmlns:xlink="http://www.w3.org/1999/xlink" x="0px" y="0px" viewBox="0 0 256 256" enable-background="new 0 0 256 256" xml:space="preserve">
<metadata> Svg Vector Icons : http://www.onlinewebfonts.com/icon </metadata>
<g><g><g><path fill="#000000" d="M161.8,140.7c17-11.8,25.5-27.9,25.5-48.2c0-16.3-5.8-30.2-17.5-41.8c-11.6-11.6-25.6-17.5-41.8-17.5s-30.2,5.8-41.8,17.5C74.5,62.4,68.7,76.3,68.7,92.6c0,20.3,8.5,36.4,25.5,48.2l10,7.2v27.1h47.6v-27.1L161.8,140.7z M128,10c22.9,0,42.4,8,58.4,24.1c16.1,16.1,24.1,35.5,24.1,58.4c0,28.8-11.8,51.3-35.4,67.6v27.1c0,3.3-1.1,6.1-3.3,8.3c-2.2,2.2-5,3.3-8.3,3.3H92.5c-3.3,0-6.1-1.1-8.3-3.3c-2.2-2.2-3.3-5-3.3-8.3v-27.2c-23.6-16.3-35.4-38.8-35.4-67.6c0-22.9,8-42.4,24.1-58.4C85.6,18,105.1,10,128,10z M92.5,234.4v-11.6h70.9v11.6c0,3.3-1.1,6.1-3.3,8.3c-2.2,2.2-5,3.3-8.3,3.3h-47.6c-3.3,0-6.1-1.1-8.3-3.3C93.6,240.5,92.5,237.7,92.5,234.4z"/></g></g></g>
</svg>