<svg height="48pt" viewBox="0 0 48 48" width="48pt" xmlns="http://www.w3.org/2000/svg" xmlns:xlink="http://www.w3.org/1999/xlink"><linearGradient id="a" gradientUnits="userSpaceOnUse" x1="24.25002" x2="24.25002" y1="-.62499" y2="45.04425"><stop offset="0" stop-color="#5433ff"/><stop offset=".51739130435" stop-color="#20bdff"/><stop offset=".98260869565" stop-color="#a5fecb"/></linearGradient><path d="m43.36 21.814c0-.866.704-1.57 1.57-1.57.867 0 1.57.704 1.57 1.57v21.546c0 1.733-1.407 3.14-3.14 3.14h-38.72c-1.733 0-3.14-1.407-3.14-3.14v-9.941c0-.867.703-1.57 1.57-1.57.866 0 1.57.703 1.57 1.57v8.895c0 .578.468 1.046 1.046 1.046h36.628c.578 0 1.046-.468 1.046-1.046zm-38.72 2.186c0 .866-.704 1.57-1.57 1.57-.867 0-1.57-.704-1.57-1.57v-19.36c0-1.733 1.407-3.14 3.14-3.14h38.72c1.733 0 3.14 1.407 3.14 3.14v7.755c0 .867-1.407 1.57-3.14 1.57v-1.57-6.709c0-.578-.468-1.046-1.046-1.046h-36.628c-.578 0-1.046.468-1.046 1.046zm5.755-10.035c-.866 0-1.569-.703-1.569-1.57 0-.866.703-1.569 1.569-1.569h31.396 1.569v3.139h-1.569zm-.395 7.035h28c1.104 0 2 .672 2 1.5 0 .828-.896 1.5-2 1.5h-28c-1.104 0-2-.672-2-1.5 0-.828.896-1.5 2-1.5zm-.342 6h18.684c.915 0 1.658.672 1.658 1.5 0 .828-.743 1.5-1.658 1.5h-18.684c-.915 0-1.658-.672-1.658-1.5 0-.828.743-1.5 1.658-1.5zm.179 5h23.326c1.014 0 1.837.672 1.837 1.5 0 .828-.823 1.5-1.837 1.5h-23.326c-1.014 0-1.837-.672-1.837-1.5 0-.828.823-1.5 1.837-1.5zm-.423 5h13.172c.78 0 1.414.634 1.414 1.414v.172c0 .78-.634 1.414-1.414 1.414h-13.172c-.78 0-1.414-.634-1.414-1.414v-.172c0-.78.634-1.414 1.414-1.414z" fill="url(#a)" fill-rule="evenodd"/></svg>